<svg width="441" height="200" viewBox="0 0 441 200" fill="none" xmlns="http://www.w3.org/2000/svg">
<path d="M119.6 117H29.4004L74.5 26.8262L119.6 117Z" stroke="black" stroke-width="24"/>
<path d="M162.955 100.136V130H146.284V77.6363H162.136V87.2499H162.716C163.875 84.0453 165.852 81.534 168.648 79.7158C171.443 77.8749 174.773 76.9544 178.636 76.9544C182.318 76.9544 185.511 77.784 188.216 79.4431C190.943 81.0794 193.057 83.3749 194.557 86.3294C196.08 89.2613 196.83 92.6931 196.807 96.6249V130H180.136V99.8976C180.159 96.9885 179.42 94.7158 177.92 93.0794C176.443 91.4431 174.386 90.6249 171.75 90.6249C170 90.6249 168.455 91.0113 167.114 91.784C165.795 92.534 164.773 93.6135 164.045 95.0226C163.341 96.4317 162.977 98.1363 162.955 100.136Z" fill="black"/>
<path d="M231.571 130.989C226.048 130.989 221.31 129.852 217.355 127.579C213.423 125.307 210.401 122.148 208.287 118.102C206.173 114.034 205.116 109.329 205.116 103.989C205.116 98.6249 206.173 93.9203 208.287 89.8749C210.423 85.8067 213.457 82.6363 217.389 80.3635C221.344 78.0908 226.06 76.9544 231.537 76.9544C236.378 76.9544 240.594 77.8294 244.185 79.5794C247.798 81.3294 250.616 83.8067 252.639 87.0113C254.685 90.1931 255.764 93.9317 255.878 98.2272H240.298C239.98 95.5453 239.071 93.4431 237.571 91.9203C236.094 90.3976 234.162 89.6363 231.776 89.6363C229.844 89.6363 228.151 90.1817 226.696 91.2726C225.241 92.3408 224.105 93.9317 223.287 96.0453C222.491 98.1363 222.094 100.727 222.094 103.818C222.094 106.909 222.491 109.523 223.287 111.659C224.105 113.773 225.241 115.375 226.696 116.466C228.151 117.534 229.844 118.068 231.776 118.068C233.321 118.068 234.685 117.739 235.866 117.079C237.071 116.42 238.06 115.454 238.832 114.182C239.605 112.886 240.094 111.318 240.298 109.477H255.878C255.719 113.795 254.639 117.568 252.639 120.795C250.662 124.023 247.878 126.534 244.287 128.329C240.719 130.102 236.48 130.989 231.571 130.989Z" fill="black"/>
<path d="M264.409 130V77.6363H281.08V130H264.409ZM272.5 71C270.159 71 264.409 71 264.409 71V63.5V55.6135H272.761L281.08 55.6136L281 63.5L281.08 71L272.5 71Z" fill="black"/>
<path d="M316.168 130.989C310.69 130.989 305.963 129.909 301.986 127.75C298.031 125.568 294.986 122.466 292.849 118.443C290.736 114.398 289.679 109.591 289.679 104.023C289.679 98.6135 290.747 93.8863 292.884 89.8408C295.02 85.7726 298.031 82.6135 301.918 80.3635C305.804 78.0908 310.384 76.9544 315.656 76.9544C319.384 76.9544 322.793 77.534 325.884 78.6931C328.974 79.8522 331.645 81.5681 333.895 83.8408C336.145 86.1135 337.895 88.9203 339.145 92.2613C340.395 95.5794 341.02 99.3863 341.02 103.682V107.841H310.986V98.159H325.509C325.486 96.3863 325.065 94.8067 324.247 93.4203C323.429 92.034 322.304 90.9544 320.872 90.1817C319.463 89.3863 317.838 88.9885 315.997 88.9885C314.134 88.9885 312.463 89.409 310.986 90.2499C309.509 91.0681 308.338 92.1931 307.474 93.6249C306.611 95.034 306.156 96.6363 306.111 98.4317V108.284C306.111 110.42 306.531 112.295 307.372 113.909C308.213 115.5 309.406 116.739 310.952 117.625C312.497 118.511 314.338 118.954 316.474 118.954C317.952 118.954 319.293 118.75 320.497 118.341C321.702 117.932 322.736 117.329 323.599 116.534C324.463 115.739 325.111 114.761 325.543 113.602L340.849 114.045C340.213 117.477 338.815 120.466 336.656 123.011C334.52 125.534 331.713 127.5 328.236 128.909C324.759 130.295 320.736 130.989 316.168 130.989Z" fill="black"/>
<path d="M366.205 100.136V130H349.534V77.6363H365.386V87.2499H365.966C367.125 84.0453 369.102 81.534 371.898 79.7158C374.693 77.8749 378.023 76.9544 381.886 76.9544C385.568 76.9544 388.761 77.784 391.466 79.4431C394.193 81.0794 396.307 83.3749 397.807 86.3294C399.33 89.2613 400.08 92.6931 400.057 96.6249V130H383.386V99.8976C383.409 96.9885 382.67 94.7158 381.17 93.0794C379.693 91.4431 377.636 90.6249 375 90.6249C373.25 90.6249 371.705 91.0113 370.364 91.784C369.045 92.534 368.023 93.6135 367.295 95.0226C366.591 96.4317 366.227 98.1363 366.205 100.136Z" fill="black"/>
<path d="M439.935 77.6363V89.909H406.901V77.6363H439.935ZM413.821 65.0908H430.491V113.534C430.491 114.557 430.651 115.386 430.969 116.023C431.31 116.636 431.798 117.079 432.435 117.352C433.071 117.602 433.832 117.727 434.719 117.727C435.355 117.727 436.026 117.67 436.73 117.557C437.457 117.42 438.003 117.307 438.366 117.216L440.889 129.25C440.094 129.477 438.969 129.761 437.514 130.102C436.082 130.443 434.366 130.659 432.366 130.75C428.457 130.932 425.105 130.477 422.31 129.386C419.537 128.273 417.412 126.545 415.935 124.204C414.48 121.864 413.776 118.92 413.821 115.375V65.0908Z" fill="black"/>
<path d="M38.0682 199L24.4318 146.636H41.1705L48.2273 180.182H48.6705L56.2386 146.636H72.5682L80.3409 179.943H80.7841L87.6364 146.636H104.375L90.7046 199H72.875L64.6932 168.489H64.1136L55.9318 199H38.0682Z" fill="black"/>
<path d="M134.384 199.989C128.884 199.989 124.156 198.864 120.202 196.614C116.27 194.341 113.236 191.182 111.099 187.136C108.986 183.068 107.929 178.352 107.929 172.989C107.929 167.602 108.986 162.886 111.099 158.841C113.236 154.773 116.27 151.614 120.202 149.364C124.156 147.091 128.884 145.954 134.384 145.954C139.884 145.954 144.599 147.091 148.531 149.364C152.486 151.614 155.52 154.773 157.634 158.841C159.77 162.886 160.838 167.602 160.838 172.989C160.838 178.352 159.77 183.068 157.634 187.136C155.52 191.182 152.486 194.341 148.531 196.614C144.599 198.864 139.884 199.989 134.384 199.989ZM134.486 187.409C136.486 187.409 138.179 186.795 139.565 185.568C140.952 184.341 142.009 182.636 142.736 180.454C143.486 178.273 143.861 175.75 143.861 172.886C143.861 169.977 143.486 167.432 142.736 165.25C142.009 163.068 140.952 161.364 139.565 160.136C138.179 158.909 136.486 158.295 134.486 158.295C132.418 158.295 130.668 158.909 129.236 160.136C127.827 161.364 126.747 163.068 125.997 165.25C125.27 167.432 124.906 169.977 124.906 172.886C124.906 175.75 125.27 178.273 125.997 180.454C126.747 182.636 127.827 184.341 129.236 185.568C130.668 186.795 132.418 187.409 134.486 187.409Z" fill="black"/>
<path d="M186.048 169.136V199H169.378V146.636H185.23V156.25H185.81C186.969 153.045 188.946 150.534 191.741 148.716C194.537 146.875 197.866 145.954 201.73 145.954C205.412 145.954 208.605 146.784 211.31 148.443C214.037 150.079 216.151 152.375 217.651 155.329C219.173 158.261 219.923 161.693 219.901 165.625V199H203.23V168.898C203.253 165.989 202.514 163.716 201.014 162.079C199.537 160.443 197.48 159.625 194.844 159.625C193.094 159.625 191.548 160.011 190.207 160.784C188.889 161.534 187.866 162.614 187.139 164.023C186.435 165.432 186.071 167.136 186.048 169.136Z" fill="black"/>
<path d="M249.347 199.75C245.483 199.75 241.972 198.75 238.812 196.75C235.653 194.75 233.131 191.75 231.244 187.75C229.358 183.75 228.415 178.784 228.415 172.852C228.415 166.693 229.392 161.625 231.347 157.648C233.301 153.67 235.858 150.727 239.017 148.818C242.199 146.909 245.619 145.954 249.278 145.954C252.028 145.954 254.381 146.432 256.335 147.386C258.29 148.318 259.903 149.523 261.176 151C262.449 152.477 263.415 154.011 264.074 155.602H264.415V129.182H281.085V199H264.585V190.511H264.074C263.369 192.125 262.369 193.636 261.074 195.045C259.778 196.454 258.153 197.591 256.199 198.454C254.267 199.318 251.983 199.75 249.347 199.75ZM255.142 186.761C257.165 186.761 258.892 186.193 260.324 185.057C261.756 183.898 262.858 182.273 263.631 180.182C264.403 178.091 264.79 175.636 264.79 172.818C264.79 169.954 264.403 167.489 263.631 165.42C262.881 163.352 261.778 161.761 260.324 160.648C258.892 159.534 257.165 158.977 255.142 158.977C253.074 158.977 251.324 159.545 249.892 160.682C248.46 161.818 247.369 163.42 246.619 165.489C245.892 167.557 245.528 170 245.528 172.818C245.528 175.636 245.903 178.091 246.653 180.182C247.403 182.273 248.483 183.898 249.892 185.057C251.324 186.193 253.074 186.761 255.142 186.761Z" fill="black"/>
<path d="M316.105 199.989C310.628 199.989 305.901 198.909 301.923 196.75C297.969 194.568 294.923 191.466 292.787 187.443C290.673 183.398 289.616 178.591 289.616 173.023C289.616 167.614 290.685 162.886 292.821 158.841C294.957 154.773 297.969 151.614 301.855 149.364C305.741 147.091 310.321 145.954 315.594 145.954C319.321 145.954 322.73 146.534 325.821 147.693C328.912 148.852 331.582 150.568 333.832 152.841C336.082 155.114 337.832 157.92 339.082 161.261C340.332 164.579 340.957 168.386 340.957 172.682V176.841H310.923V167.159H325.446C325.423 165.386 325.003 163.807 324.185 162.42C323.366 161.034 322.241 159.954 320.81 159.182C319.401 158.386 317.776 157.989 315.935 157.989C314.071 157.989 312.401 158.409 310.923 159.25C309.446 160.068 308.276 161.193 307.412 162.625C306.548 164.034 306.094 165.636 306.048 167.432V177.284C306.048 179.42 306.469 181.295 307.31 182.909C308.151 184.5 309.344 185.739 310.889 186.625C312.435 187.511 314.276 187.954 316.412 187.954C317.889 187.954 319.23 187.75 320.435 187.341C321.639 186.932 322.673 186.329 323.537 185.534C324.401 184.739 325.048 183.761 325.48 182.602L340.787 183.045C340.151 186.477 338.753 189.466 336.594 192.011C334.457 194.534 331.651 196.5 328.173 197.909C324.696 199.295 320.673 199.989 316.105 199.989Z" fill="black"/>
<path d="M349.472 199V146.636H365.665V156.182H366.21C367.165 152.727 368.722 150.159 370.881 148.477C373.04 146.773 375.551 145.92 378.415 145.92C379.188 145.92 379.983 145.977 380.801 146.091C381.619 146.182 382.381 146.329 383.085 146.534V161.023C382.29 160.75 381.244 160.534 379.949 160.375C378.676 160.216 377.54 160.136 376.54 160.136C374.562 160.136 372.778 160.579 371.188 161.466C369.619 162.329 368.381 163.545 367.472 165.114C366.585 166.659 366.142 168.477 366.142 170.568V199H349.472Z" fill="black"/>
<path d="M435.594 162.625L420.287 163.034C420.128 161.943 419.696 160.977 418.991 160.136C418.287 159.273 417.366 158.602 416.23 158.125C415.116 157.625 413.821 157.375 412.344 157.375C410.412 157.375 408.764 157.761 407.401 158.534C406.06 159.307 405.401 160.352 405.423 161.67C405.401 162.693 405.81 163.579 406.651 164.329C407.514 165.079 409.048 165.682 411.253 166.136L421.344 168.045C426.571 169.045 430.457 170.704 433.003 173.023C435.571 175.341 436.866 178.409 436.889 182.227C436.866 185.818 435.798 188.943 433.685 191.602C431.594 194.261 428.73 196.329 425.094 197.807C421.457 199.261 417.298 199.989 412.616 199.989C405.139 199.989 399.241 198.454 394.923 195.386C390.628 192.295 388.173 188.159 387.56 182.977L404.026 182.568C404.389 184.477 405.332 185.932 406.855 186.932C408.378 187.932 410.321 188.432 412.685 188.432C414.821 188.432 416.56 188.034 417.901 187.239C419.241 186.443 419.923 185.386 419.946 184.068C419.923 182.886 419.401 181.943 418.378 181.239C417.355 180.511 415.753 179.943 413.571 179.534L404.435 177.795C399.185 176.841 395.276 175.079 392.707 172.511C390.139 169.92 388.866 166.625 388.889 162.625C388.866 159.125 389.798 156.136 391.685 153.659C393.571 151.159 396.253 149.25 399.73 147.932C403.207 146.614 407.31 145.954 412.037 145.954C419.128 145.954 424.719 147.443 428.81 150.42C432.901 153.375 435.162 157.443 435.594 162.625Z" fill="black"/>
</svg>
